<?xml version="1.0" encoding="utf-8"?>
<!-- Generator: Adobe Illustrator 28.0.0, SVG Export Plug-In . SVG Version: 6.00 Build 0)  -->
<svg version="1.1" id="Capa_1" xmlns="http://www.w3.org/2000/svg" xmlns:xlink="http://www.w3.org/1999/xlink" x="0px" y="0px"
	 viewBox="0 0 512 512" style="enable-background:new 0 0 512 512;" xml:space="preserve">
<style type="text/css">
	.st0{fill:#C9CACA;}
	.st1{fill:#DFE0E0;}
	.st2{fill:#B7B7B7;}
	.st3{fill:#494F57;}
	.st4{fill:#E15F76;}
	.st5{fill:#5C626B;}
	.st6{fill:#535860;}
	.st7{fill:#E7CE5F;}
	.st8{fill:#CB556A;}
	.st9{fill:#FBE067;}
	.st10{fill:#F7C2AD;}
</style>
<g>
	<path class="st0" d="M38.6,87.3v75.9c0,35.7,29,64.7,64.7,64.7h19.2c5.9,0,10.7,4.8,10.7,10.7v7.7c0,13.7-4.4,27.1-12.5,38.2
		l-24.1,33c-1.5,2.1,0,5.1,2.6,5.1h75.9c35.7,0,64.7-29,64.7-64.7v-19.2c0-5.9,4.8-10.7,10.7-10.7h7.7c13.7,0,27.1,4.4,38.2,12.5
		l33,24.1c2.1,1.5,5.1,0,5.1-2.6v-75.9c0-35.7-29-64.7-64.7-64.7h-19.2c-5.9,0-10.7-4.8-10.7-10.7v-7.7c0-13.7,4.4-27.1,12.5-38.2
		l24.1-33c1.5-2.1,0-5.1-2.6-5.1h-75.9c-35.7,0-64.7,29-64.7,64.7v19.2c0,5.9-4.8,10.7-10.7,10.7h-7.7c-13.7,0-27.1-4.4-38.2-12.5
		l-33-24.1C41.5,83.2,38.6,84.7,38.6,87.3L38.6,87.3z M38.6,87.3"/>
	<path class="st1" d="M222.8,175.7c0-0.4,0-0.7,0-1.1c0-19.6-15.6-35.6-35.1-36.3C194,88.2,228,45.2,276.3,27.9
		c0.8,1.1,1,2.6,0.1,3.9l-24.1,33c-8.1,11.1-12.5,24.5-12.5,38.2v7.7c0,5.9,4.8,10.7,10.7,10.7h19.2c35.7,0,64.7,29,64.7,64.7V262
		c0,1-0.5,1.9-1.1,2.4C316,216.1,273,182,222.8,175.7L222.8,175.7z M222.8,175.7"/>
	<path class="st2" d="M122.5,227.9h-19.2c-35.7,0-64.7-29-64.7-64.7V87.3c0-1,0.4-1.8,1.1-2.4c17.3,48.4,60.4,82.4,110.6,88.7
		c0,0.4,0,0.7,0,1.1c0,19.7,15.7,35.8,35.3,36.3c-6.3,50.2-40.3,93.3-88.7,110.6c-1-1-1.2-2.7-0.2-4l24.1-33
		c8.1-11.1,12.5-24.5,12.5-38.2v-7.7C133.2,232.7,128.4,227.9,122.5,227.9L122.5,227.9z M122.5,227.9"/>
	<path class="st1" d="M186.5,110.4c-35.5,0-64.3,28.8-64.3,64.3c0,35.5,28.8,64.3,64.3,64.3c35.5,0,64.3-28.8,64.3-64.3
		C250.8,139.1,222,110.4,186.5,110.4L186.5,110.4z M186.5,110.4"/>
	<path class="st0" d="M134.1,174.6c0-33.5,25.6-61,58.3-64c-2-0.2-3.9-0.3-6-0.3c-35.5,0-64.3,28.8-64.3,64.3
		c0,35.5,28.8,64.3,64.3,64.3c2,0,4-0.1,6-0.3C159.7,235.6,134.1,208.1,134.1,174.6L134.1,174.6z M134.1,174.6"/>
	<path class="st3" d="M186.5,186.7c-5.7,0-10.2-4.6-10.2-10.2v-7.7h20.5v7.7C196.7,182.1,192.2,186.7,186.5,186.7L186.5,186.7z
		 M186.5,186.7"/>
	<path class="st3" d="M224.4,173.6c-2.4,0-4.3-1.9-4.3-4.3v-6.8c0-2.4,1.9-4.3,4.3-4.3c2.4,0,4.3,1.9,4.3,4.3v6.8
		C228.7,171.7,226.8,173.6,224.4,173.6L224.4,173.6z M224.4,173.6"/>
	<path class="st3" d="M148.6,173.6c-2.4,0-4.3-1.9-4.3-4.3v-6.8c0-2.4,1.9-4.3,4.3-4.3c2.4,0,4.3,1.9,4.3,4.3v6.8
		C152.9,171.7,151,173.6,148.6,173.6L148.6,173.6z M148.6,173.6"/>
	<path class="st4" d="M227.8,186.4H221c-2.4,0-4.3-1.9-4.3-4.3c0-2.4,1.9-4.3,4.3-4.3h6.8c2.4,0,4.3,1.9,4.3,4.3
		C232.1,184.5,230.2,186.4,227.8,186.4L227.8,186.4z M227.8,186.4"/>
	<path class="st4" d="M152,186.4h-6.8c-2.4,0-4.3-1.9-4.3-4.3c0-2.4,1.9-4.3,4.3-4.3h6.8c2.4,0,4.3,1.9,4.3,4.3
		C156.3,184.5,154.4,186.4,152,186.4L152,186.4z M152,186.4"/>
</g>
<g>
	<path class="st5" d="M251.2,376.3l-19,19l-35.8-35.8c-5.2-5.2-5.2-13.7,0-19c5.2-5.2,13.7-5.2,19,0L251.2,376.3z"/>
	<path class="st6" d="M202.4,337c-2.2,0.6-4.3,1.7-6,3.5c-5.2,5.2-5.2,13.7,0,19l35.8,35.8l9.5-9.5L205.9,350
		C202.3,346.5,201.2,341.5,202.4,337z"/>
	<path class="st7" d="M241.4,398.9l-12.7-12.7c-1.1-1.1-1.1-2.9,0-4l-13.1,13.1c-1.1,1.1-1.1,2.9,0,4l12.7,12.7c1.1,1.1,2.9,1.1,4,0
		l13.1-13.1C244.2,399.9,242.4,399.9,241.4,398.9z"/>
	<path class="st8" d="M240.3,281.6c1-12,3.9-23.5,8.4-34.1c1.1-2.7,3.8-4.5,6.8-4.5H237c-2.9,0-5.6,1.7-6.8,4.5
		c-4.6,10.6-7.4,22.1-8.4,34.1c-0.3,4.3,3.1,7.9,7.4,7.9h18.5C243.3,289.5,239.9,285.8,240.3,281.6z"/>
	<path class="st1" d="M232.1,395.3l19-19l51.8,51.8l-19,19L232.1,395.3z"/>
	<path class="st0" d="M232.1,395.3l9.5-9.5l51.8,51.8l-9.5,9.5L232.1,395.3z"/>
	<path class="st9" d="M267.8,376.4L232.2,412c-1.1,1.1-2.9,1.1-4,0l-12.7-12.7c-1.1-1.1-1.1-2.9,0-4l35.6-35.6c1.1-1.1,2.9-1.1,4,0
		l12.7,12.7C268.8,373.5,268.8,375.3,267.8,376.4z"/>
	<path class="st5" d="M424.3,376.3l19,19l35.8-35.8c5.2-5.2,5.2-13.7,0-19c-5.2-5.2-13.7-5.2-19,0L424.3,376.3z"/>
	<path class="st6" d="M473,337c2.2,0.6,4.3,1.7,6,3.5c5.2,5.2,5.2,13.7,0,19l-35.8,35.8l-9.5-9.5l35.8-35.8
		C473.1,346.5,474.2,341.5,473,337z"/>
	<path class="st1" d="M391.5,447.1l-18.9-19l51.8-51.8l19,19L391.5,447.1z"/>
	<path class="st0" d="M382,437.6l51.8-51.8l9.5,9.5l-51.8,51.8L382,437.6z"/>
	<path class="st9" d="M407.7,376.4l35.6,35.6c1.1,1.1,2.9,1.1,4,0l12.7-12.7c1.1-1.1,1.1-2.9,0-4l-35.6-35.6c-1.1-1.1-2.9-1.1-4,0
		l-12.7,12.7C406.6,373.5,406.6,375.3,407.7,376.4z"/>
	<path class="st7" d="M434.1,398.9l12.7-12.7c1.1-1.1,1.1-2.9,0-4l13.1,13.1c1.1,1.1,1.1,2.9,0,4L447.2,412c-1.1,1.1-2.9,1.1-4,0
		l-13.1-13.1C431.3,399.9,433,399.9,434.1,398.9z"/>
	<path class="st3" d="M235.2,486.5c0-56.6,45.9-102.5,102.5-102.5s102.5,45.9,102.5,102.5H235.2z"/>
	<path class="st6" d="M440.2,486.5H271.6l97.6-97.6C410.4,402.2,440.2,440.8,440.2,486.5z"/>
	<path class="st8" d="M305.7,486.5h-34.1l97.6-97.6c8.2,2.7,16.1,6.4,23.2,10.8L305.7,486.5z"/>
	<path class="st5" d="M235.2,486.5h168.6l-97.6-97.6C265.1,402.2,235.2,440.8,235.2,486.5z"/>
	<path class="st6" d="M347.4,384.5c-3.1-0.3-6.4-0.5-9.6-0.5c-56.6,0-102.5,45.9-102.5,102.5h19.3
		C254.4,433.1,295.3,389.3,347.4,384.5z"/>
	<path class="st4" d="M369.7,486.5h34.1l-97.6-97.6c-8.2,2.7-16.1,6.4-23.2,10.8L369.7,486.5z"/>
	<path class="st8" d="M311.8,394.4l-5.6-5.6c-8.2,2.7-16.1,6.4-23.2,10.8l8.1,8.1C297.5,402.6,304.4,398.1,311.8,394.4z"/>
	<path class="st5" d="M447.9,290.7c0,60.8-49.3,110.1-110.1,110.1s-110.1-49.3-110.1-110.1S277,180.6,337.8,180.6
		S447.9,229.8,447.9,290.7z"/>
	<path class="st6" d="M246.1,290.7c0-57.7,44.4-105.1,100.9-109.7c-3-0.3-6.1-0.4-9.2-0.4c-60.8,0-110.1,49.3-110.1,110.1
		S277,400.8,337.8,400.8c3.1,0,6.2-0.1,9.2-0.4C290.5,395.7,246.1,348.4,246.1,290.7z"/>
	<path class="st6" d="M227.6,290.7c0,2.7,0.1,5.4,0.3,8c0.4,0,0.9,0.1,1.3,0.1h217.1c0.4,0,0.9,0,1.3-0.1c0.2-2.7,0.3-5.3,0.3-8
		c0-8.4-0.9-16.5-2.7-24.4H230.3C228.5,274.1,227.6,282.3,227.6,290.7z"/>
	<path class="st10" d="M378.1,337.5l-13.7-5.7c-17-7.1-36.2-7.1-53.2,0l-13.7,5.7c-16.4,6.8-34.5-5.2-34.5-23c0-13.8,11.2-25,25-25
		h99.9c13.8,0,25,11.2,25,25C412.6,332.2,394.5,344.4,378.1,337.5z"/>
	<path class="st4" d="M229.1,289.5h217.1c4.3,0,7.7-3.6,7.4-7.9c-1-12-3.9-23.5-8.4-34.1c-1.1-2.7-3.8-4.5-6.8-4.5H237
		c-2.9,0-5.6,1.7-6.8,4.5c-4.6,10.6-7.4,22.1-8.4,34.1C221.5,285.8,224.8,289.5,229.1,289.5z"/>
	<g>
		<path class="st3" d="M208.5,352.7l-9.5,9.5l6.6,6.6l9.5-9.5c1.8-1.8,1.8-4.8,0-6.6S210.3,350.8,208.5,352.7z"/>
		<path class="st3" d="M219.4,363.5l-9.5,9.5l6.6,6.6l9.4-9.5c1.8-1.8,1.8-4.8,0-6.6C224.1,361.7,221.2,361.7,219.4,363.5z"/>
		<path class="st3" d="M466.9,352.7c-1.8-1.8-4.8-1.8-6.6,0c-1.8,1.8-1.8,4.8,0,6.6l9.5,9.5l6.6-6.6L466.9,352.7z"/>
		<path class="st3" d="M456,363.5c-1.8-1.8-4.8-1.8-6.6,0c-1.8,1.8-1.8,4.8,0,6.6l9.5,9.5l6.6-6.6L456,363.5z"/>
		<path class="st3" d="M377,317.4c-2.5,0-4.5-2-4.5-4.5v-7c0-2.5,2-4.5,4.5-4.5s4.5,2,4.5,4.5v7C381.4,315.4,379.4,317.4,377,317.4z
			"/>
		<path class="st3" d="M298.5,317.4c-2.5,0-4.5-2-4.5-4.5v-7c0-2.5,2-4.5,4.5-4.5s4.5,2,4.5,4.5v7C303,315.4,301,317.4,298.5,317.4z
			"/>
	</g>
</g>
</svg>
